<svg width="14" height="13" viewBox="0 0 14 13" fill="none" xmlns="http://www.w3.org/2000/svg">
<path d="M14 6.92699C14 3.34967 11.1815 0.316553 7.58366 0.0225113C5.67447 -0.133324 3.74932 0.525302 2.30492 1.83106C0.766869 3.2213 -0.0712142 5.17461 0.00475042 7.18986C0.0276278 7.79845 0.13464 8.39433 0.312883 8.96806C0.308567 9.00866 0.299936 9.04803 0.299936 9.08986V11.603C0.299936 12.2796 0.882527 12.8333 1.59459 12.8333H3.66561C3.81019 12.8333 3.92885 12.7205 3.92885 12.5831V8.1097C3.92885 7.97231 3.81018 7.85953 3.66561 7.85953H1.59459C1.51994 7.85953 1.44742 7.86897 1.37622 7.88086C1.33566 7.63848 1.3076 7.39365 1.29854 7.14555C1.23553 5.48218 1.92774 3.87006 3.19693 2.7226C4.37334 1.66002 5.93255 1.12238 7.47233 1.24827C10.4069 1.48859 12.7053 3.98283 12.7053 6.92697C12.7053 7.24971 12.6773 7.56836 12.6246 7.88086C12.553 7.86897 12.4805 7.85953 12.4054 7.85953H10.3344C10.1894 7.85953 10.0711 7.97231 10.0711 8.1097V12.5831C10.0711 12.7205 10.1894 12.8333 10.3344 12.8333H12.4054C13.1175 12.8333 13.7001 12.2796 13.7001 11.603V9.08986C13.7001 9.04967 13.6919 9.01194 13.6876 8.97257C13.8921 8.31681 14 7.6303 14 6.92698L14 6.92699Z" fill="white"/>
</svg>
