<svg width="15" height="16" viewBox="0 0 15 16" fill="none" xmlns="http://www.w3.org/2000/svg">
<path fill-rule="evenodd" clip-rule="evenodd" d="M12.1632 10.2416C11.3318 10.2416 10.5918 10.6192 10.0755 11.2069L6.14368 8.88108C6.23509 8.59703 6.2969 8.29963 6.2969 7.98442C6.2969 7.67277 6.23596 7.37715 6.14541 7.09578L10.0711 4.78692C10.5874 5.37815 11.3292 5.75748 12.1632 5.75748C13.7156 5.75748 14.9789 4.46636 14.9789 2.87874C14.9789 1.29111 13.7156 0 12.1632 0C10.6109 0 9.34848 1.29111 9.34848 2.87874C9.34848 3.19038 9.40943 3.48511 9.49997 3.76738L5.57341 6.07624C5.05799 5.485 4.31534 5.10568 3.48214 5.10568C1.92892 5.10568 0.666504 6.39679 0.666504 7.98442C0.666504 9.57293 1.92892 10.8649 3.48214 10.8649C4.3136 10.8649 5.05364 10.4874 5.56906 9.89883L9.50171 12.2246C9.4103 12.5087 9.34848 12.8061 9.34848 13.1204C9.34848 14.708 10.6109 16 12.1632 16C13.7156 16 14.9789 14.708 14.9789 13.1204C14.9789 11.5327 13.7156 10.2416 12.1632 10.2416ZM12.1633 1.17535C13.0818 1.17535 13.8288 1.93933 13.8288 2.87873C13.8288 3.81812 13.0818 4.5821 12.1633 4.5821C11.2456 4.5821 10.4978 3.81812 10.4978 2.87873C10.4978 1.93933 11.2456 1.17535 12.1633 1.17535ZM3.48211 9.68868C2.56359 9.68868 1.81659 8.92469 1.81659 7.98441C1.81659 7.0459 2.56359 6.28103 3.48211 6.28103C4.39977 6.28103 5.14764 7.0459 5.14764 7.98441C5.14764 8.92469 4.39977 9.68868 3.48211 9.68868ZM12.1633 14.8247C11.2456 14.8247 10.4978 14.0608 10.4978 13.1205C10.4978 12.1811 11.2456 11.4171 12.1633 11.4171C13.0818 11.4171 13.8288 12.1811 13.8288 13.1205C13.8288 14.0608 13.0818 14.8247 12.1633 14.8247Z" fill="#FF5900"/>
</svg>
