<svg width="14" height="16" viewBox="0 0 14 16" fill="none" xmlns="http://www.w3.org/2000/svg">
<path fill-rule="evenodd" clip-rule="evenodd" d="M0.868846 15.9996C0.782867 15.9996 0.697698 15.9774 0.618204 15.932C0.442999 15.8305 0.333496 15.6301 0.333496 15.412V1.44245C0.333496 0.646436 0.923189 0 1.64834 0H12.3528C13.0779 0 13.6668 0.646436 13.6668 1.44245V15.412C13.6668 15.6301 13.5565 15.8305 13.3813 15.932C13.2053 16.0335 12.9928 16.021 12.8297 15.8972L7.00016 11.5254L1.17058 15.8972C1.08055 15.9649 0.975102 15.9996 0.868846 15.9996ZM1.6483 1.17529C1.51365 1.17529 1.40415 1.2955 1.40415 1.44241V14.2989L6.69839 10.3277C6.88089 10.1906 7.12018 10.1906 7.30187 10.3277L12.5961 14.2989V1.44241C12.5961 1.2955 12.4866 1.17529 12.3528 1.17529H1.6483Z" fill="#FF5900"/>
</svg>
