<svg width="12" height="12" viewBox="0 0 12 12" fill="none" xmlns="http://www.w3.org/2000/svg">
<path fill-rule="evenodd" clip-rule="evenodd" d="M3.66519 11.5287C2.95042 11.2263 2.3083 10.7943 1.75749 10.2425C1.20668 9.6917 0.773687 9.05056 0.471281 8.33579C0.159057 7.59647 0 6.811 0 6.00098C0 5.19097 0.159057 4.40452 0.471281 3.66519C0.773687 2.95042 1.20668 2.3083 1.75749 1.75749C2.3083 1.20668 2.95042 0.773687 3.66519 0.471281C4.40353 0.158076 5.18999 0 6.00098 0C6.811 0 7.59647 0.158076 8.33579 0.471281C9.05056 0.773687 9.6917 1.20668 10.2425 1.75749C10.7943 2.3083 11.2263 2.95042 11.5287 3.66519C11.8419 4.40452 12 5.19097 12 6.00098C12 6.811 11.8419 7.59647 11.5287 8.33579C11.2263 9.05056 10.7943 9.6917 10.2425 10.2425C9.6917 10.7943 9.05056 11.2263 8.33579 11.5287C7.59647 11.8419 6.811 12 6.00098 12C5.18999 12 4.40452 11.8419 3.66519 11.5287ZM4.26482 1.89387C3.73365 2.11773 3.25746 2.43978 2.84803 2.8492C2.4386 3.25764 2.11754 3.73482 1.8927 4.26599C1.66001 4.81484 1.54219 5.39903 1.54219 6.00089C1.54219 6.60276 1.66001 7.18597 1.8927 7.7358C2.11754 8.26599 2.4386 8.74316 2.84803 9.15161C3.25746 9.56201 3.73365 9.88307 4.26482 10.1079C4.81465 10.3396 5.39786 10.4574 6.00071 10.4574C6.60257 10.4574 7.18578 10.3396 7.73561 10.1079C8.2658 9.88307 8.74297 9.56201 9.1524 9.15161C9.56084 8.74316 9.88288 8.26599 10.1067 7.7358C10.3394 7.18597 10.4573 6.60276 10.4573 6.00089C10.4573 5.39903 10.3394 4.81484 10.1067 4.26599C9.88288 3.73482 9.56084 3.25764 9.1524 2.8492C8.74297 2.43978 8.2658 2.11773 7.73561 1.89387C7.18578 1.66118 6.60257 1.54336 6.00071 1.54336C5.39786 1.54336 4.81465 1.66118 4.26482 1.89387ZM5.9145 7.1246C5.48838 7.1246 5.14277 6.77899 5.14277 6.35287V3.17172C5.14277 2.74561 5.48838 2.4 5.9145 2.4C6.34061 2.4 6.68622 2.74561 6.68622 3.17172V5.58115H8.14326C8.56938 5.58115 8.91499 5.92675 8.91499 6.35287C8.91499 6.77899 8.56938 7.1246 8.14326 7.1246H5.9145Z" fill="white"/>
</svg>
