<svg width="12" height="12" viewBox="0 0 12 12" fill="none" xmlns="http://www.w3.org/2000/svg">
<path d="M6 0C4.81331 0 3.65328 0.351894 2.66658 1.01118C1.67989 1.67047 0.910851 2.60754 0.456725 3.7039C0.0025997 4.80026 -0.11622 6.00665 0.115291 7.17054C0.346802 8.33443 0.918247 9.40352 1.75736 10.2426C2.59648 11.0818 3.66557 11.6532 4.82946 11.8847C5.99335 12.1162 7.19975 11.9974 8.2961 11.5433C9.39246 11.0891 10.3295 10.3201 10.9888 9.33342C11.6481 8.34672 12 7.18669 12 6C11.9982 4.40926 11.3655 2.88419 10.2406 1.75936C9.11581 0.634539 7.59074 0.00181488 6 0ZM6 11.1429C4.63603 11.1429 3.32793 10.601 2.36345 9.63655C1.39898 8.67207 0.857145 7.36397 0.857145 6C0.857145 4.63603 1.39898 3.32792 2.36345 2.36345C3.32793 1.39898 4.63603 0.857143 6 0.857143V6L9.63472 9.63471C9.15805 10.1131 8.59157 10.4926 7.96781 10.7514C7.34406 11.0102 6.67532 11.1432 6 11.1429Z" fill="#FFA97A"/>
</svg>
